<mxfile host="app.diagrams.net" modified="2024-05-09T04:59:41.817Z" agent="Mozilla/5.0 (Windows NT 10.0; Win64; x64) AppleWebKit/537.36 (KHTML, like Gecko) Chrome/124.0.0.0 Safari/537.36" etag="9tgyXmoL0roOQ5dezAqF" version="24.3.1" type="github">
  <diagram name="페이지-1" id="6HhGMLmPeLt5evIfdGXk">
    <mxGraphModel dx="970" dy="923" grid="1" gridSize="10" guides="1" tooltips="1" connect="1" arrows="1" fold="1" page="1" pageScale="1" pageWidth="827" pageHeight="1169" math="0" shadow="0">
      <root>
        <mxCell id="0" />
        <mxCell id="1" parent="0" />
        <mxCell id="oomTNqvoLpPSbZY3bdZ6-1" value="Game Object" style="swimlane;whiteSpace=wrap;html=1;startSize=23;" vertex="1" parent="1">
          <mxGeometry x="360" y="300" width="230" height="250" as="geometry" />
        </mxCell>
        <mxCell id="oomTNqvoLpPSbZY3bdZ6-7" value="Attack" style="swimlane;fontStyle=0;childLayout=stackLayout;horizontal=1;startSize=30;horizontalStack=0;resizeParent=1;resizeParentMax=0;resizeLast=0;collapsible=1;marginBottom=0;whiteSpace=wrap;html=1;" vertex="1" parent="oomTNqvoLpPSbZY3bdZ6-1">
          <mxGeometry x="10" y="30" width="210" height="210" as="geometry" />
        </mxCell>
        <mxCell id="oomTNqvoLpPSbZY3bdZ6-8" value="AttackUnit: Unit" style="text;strokeColor=none;fillColor=none;align=left;verticalAlign=middle;spacingLeft=4;spacingRight=4;overflow=hidden;points=[[0,0.5],[1,0.5]];portConstraint=eastwest;rotatable=0;whiteSpace=wrap;html=1;" vertex="1" parent="oomTNqvoLpPSbZY3bdZ6-7">
          <mxGeometry y="30" width="210" height="30" as="geometry" />
        </mxCell>
        <mxCell id="oomTNqvoLpPSbZY3bdZ6-9" value="targetTag: string" style="text;strokeColor=none;fillColor=none;align=left;verticalAlign=middle;spacingLeft=4;spacingRight=4;overflow=hidden;points=[[0,0.5],[1,0.5]];portConstraint=eastwest;rotatable=0;whiteSpace=wrap;html=1;" vertex="1" parent="oomTNqvoLpPSbZY3bdZ6-7">
          <mxGeometry y="60" width="210" height="30" as="geometry" />
        </mxCell>
        <mxCell id="oomTNqvoLpPSbZY3bdZ6-10" value="damageAreaList:&amp;nbsp;List&amp;lt;DamageArea&amp;gt;" style="text;strokeColor=none;fillColor=none;align=left;verticalAlign=middle;spacingLeft=4;spacingRight=4;overflow=hidden;points=[[0,0.5],[1,0.5]];portConstraint=eastwest;rotatable=0;whiteSpace=wrap;html=1;" vertex="1" parent="oomTNqvoLpPSbZY3bdZ6-7">
          <mxGeometry y="90" width="210" height="30" as="geometry" />
        </mxCell>
        <mxCell id="oomTNqvoLpPSbZY3bdZ6-16" value="damagedUnitList:&amp;nbsp;List&amp;lt;Unit&amp;gt;" style="text;strokeColor=none;fillColor=none;align=left;verticalAlign=middle;spacingLeft=4;spacingRight=4;overflow=hidden;points=[[0,0.5],[1,0.5]];portConstraint=eastwest;rotatable=0;whiteSpace=wrap;html=1;" vertex="1" parent="oomTNqvoLpPSbZY3bdZ6-7">
          <mxGeometry y="120" width="210" height="30" as="geometry" />
        </mxCell>
        <mxCell id="oomTNqvoLpPSbZY3bdZ6-38" value="dealDamageOnEnter: bool" style="text;strokeColor=none;fillColor=none;align=left;verticalAlign=middle;spacingLeft=4;spacingRight=4;overflow=hidden;points=[[0,0.5],[1,0.5]];portConstraint=eastwest;rotatable=0;whiteSpace=wrap;html=1;" vertex="1" parent="oomTNqvoLpPSbZY3bdZ6-7">
          <mxGeometry y="150" width="210" height="30" as="geometry" />
        </mxCell>
        <mxCell id="oomTNqvoLpPSbZY3bdZ6-17" value="DamageEnter()" style="text;strokeColor=none;fillColor=none;align=left;verticalAlign=middle;spacingLeft=4;spacingRight=4;overflow=hidden;points=[[0,0.5],[1,0.5]];portConstraint=eastwest;rotatable=0;whiteSpace=wrap;html=1;fontStyle=1" vertex="1" parent="oomTNqvoLpPSbZY3bdZ6-7">
          <mxGeometry y="180" width="210" height="30" as="geometry" />
        </mxCell>
        <mxCell id="oomTNqvoLpPSbZY3bdZ6-3" style="edgeStyle=orthogonalEdgeStyle;rounded=0;orthogonalLoop=1;jettySize=auto;html=1;entryX=0.5;entryY=1;entryDx=0;entryDy=0;endArrow=block;endFill=1;" edge="1" parent="1" source="oomTNqvoLpPSbZY3bdZ6-4" target="oomTNqvoLpPSbZY3bdZ6-1">
          <mxGeometry relative="1" as="geometry" />
        </mxCell>
        <mxCell id="oomTNqvoLpPSbZY3bdZ6-4" value="Game Object" style="swimlane;whiteSpace=wrap;html=1;startSize=23;" vertex="1" parent="1">
          <mxGeometry x="395" y="585" width="160" height="190" as="geometry" />
        </mxCell>
        <mxCell id="oomTNqvoLpPSbZY3bdZ6-5" value="DamageArea" style="swimlane;fontStyle=0;childLayout=stackLayout;horizontal=1;startSize=30;horizontalStack=0;resizeParent=1;resizeParentMax=0;resizeLast=0;collapsible=1;marginBottom=0;whiteSpace=wrap;html=1;" vertex="1" parent="oomTNqvoLpPSbZY3bdZ6-4">
          <mxGeometry x="10" y="30" width="140" height="150" as="geometry" />
        </mxCell>
        <mxCell id="oomTNqvoLpPSbZY3bdZ6-20" value="Source: Attack" style="text;strokeColor=none;fillColor=none;align=left;verticalAlign=middle;spacingLeft=4;spacingRight=4;overflow=hidden;points=[[0,0.5],[1,0.5]];portConstraint=eastwest;rotatable=0;whiteSpace=wrap;html=1;" vertex="1" parent="oomTNqvoLpPSbZY3bdZ6-5">
          <mxGeometry y="30" width="140" height="30" as="geometry" />
        </mxCell>
        <mxCell id="oomTNqvoLpPSbZY3bdZ6-21" value="damage: float" style="text;strokeColor=none;fillColor=none;align=left;verticalAlign=middle;spacingLeft=4;spacingRight=4;overflow=hidden;points=[[0,0.5],[1,0.5]];portConstraint=eastwest;rotatable=0;whiteSpace=wrap;html=1;" vertex="1" parent="oomTNqvoLpPSbZY3bdZ6-5">
          <mxGeometry y="60" width="140" height="30" as="geometry" />
        </mxCell>
        <mxCell id="oomTNqvoLpPSbZY3bdZ6-22" value="priority: int" style="text;strokeColor=none;fillColor=none;align=left;verticalAlign=middle;spacingLeft=4;spacingRight=4;overflow=hidden;points=[[0,0.5],[1,0.5]];portConstraint=eastwest;rotatable=0;whiteSpace=wrap;html=1;" vertex="1" parent="oomTNqvoLpPSbZY3bdZ6-5">
          <mxGeometry y="90" width="140" height="30" as="geometry" />
        </mxCell>
        <mxCell id="oomTNqvoLpPSbZY3bdZ6-23" value="&lt;b&gt;DealDamage()&lt;/b&gt;" style="text;strokeColor=none;fillColor=none;align=left;verticalAlign=middle;spacingLeft=4;spacingRight=4;overflow=hidden;points=[[0,0.5],[1,0.5]];portConstraint=eastwest;rotatable=0;whiteSpace=wrap;html=1;" vertex="1" parent="oomTNqvoLpPSbZY3bdZ6-5">
          <mxGeometry y="120" width="140" height="30" as="geometry" />
        </mxCell>
        <mxCell id="oomTNqvoLpPSbZY3bdZ6-37" value="" style="edgeStyle=orthogonalEdgeStyle;rounded=0;orthogonalLoop=1;jettySize=auto;html=1;" edge="1" parent="1" source="oomTNqvoLpPSbZY3bdZ6-24" target="oomTNqvoLpPSbZY3bdZ6-36">
          <mxGeometry relative="1" as="geometry" />
        </mxCell>
        <mxCell id="oomTNqvoLpPSbZY3bdZ6-24" value="DamageArea가&lt;div&gt;HitBox와 충돌&lt;/div&gt;" style="rounded=1;whiteSpace=wrap;html=1;fillColor=#fff2cc;strokeColor=#d6b656;" vertex="1" parent="1">
          <mxGeometry x="10" y="820" width="120" height="60" as="geometry" />
        </mxCell>
        <mxCell id="oomTNqvoLpPSbZY3bdZ6-26" value="Game Object" style="swimlane;whiteSpace=wrap;html=1;startSize=23;" vertex="1" parent="1">
          <mxGeometry x="110" y="470" width="160" height="100" as="geometry" />
        </mxCell>
        <mxCell id="oomTNqvoLpPSbZY3bdZ6-27" value="Unit" style="swimlane;fontStyle=0;childLayout=stackLayout;horizontal=1;startSize=30;horizontalStack=0;resizeParent=1;resizeParentMax=0;resizeLast=0;collapsible=1;marginBottom=0;whiteSpace=wrap;html=1;" vertex="1" parent="oomTNqvoLpPSbZY3bdZ6-26">
          <mxGeometry x="10" y="30" width="140" height="60" as="geometry" />
        </mxCell>
        <mxCell id="oomTNqvoLpPSbZY3bdZ6-28" style="edgeStyle=orthogonalEdgeStyle;rounded=0;orthogonalLoop=1;jettySize=auto;html=1;endArrow=block;endFill=1;" edge="1" parent="1" source="oomTNqvoLpPSbZY3bdZ6-29" target="oomTNqvoLpPSbZY3bdZ6-26">
          <mxGeometry relative="1" as="geometry" />
        </mxCell>
        <mxCell id="oomTNqvoLpPSbZY3bdZ6-29" value="Game Object" style="swimlane;whiteSpace=wrap;html=1;startSize=23;" vertex="1" parent="1">
          <mxGeometry x="110" y="620" width="160" height="140" as="geometry" />
        </mxCell>
        <mxCell id="oomTNqvoLpPSbZY3bdZ6-30" value="HitBox" style="swimlane;fontStyle=0;childLayout=stackLayout;horizontal=1;startSize=30;horizontalStack=0;resizeParent=1;resizeParentMax=0;resizeLast=0;collapsible=1;marginBottom=0;whiteSpace=wrap;html=1;" vertex="1" parent="oomTNqvoLpPSbZY3bdZ6-29">
          <mxGeometry x="10" y="30" width="140" height="90" as="geometry" />
        </mxCell>
        <mxCell id="oomTNqvoLpPSbZY3bdZ6-31" value="unit: Unit" style="text;strokeColor=none;fillColor=none;align=left;verticalAlign=middle;spacingLeft=4;spacingRight=4;overflow=hidden;points=[[0,0.5],[1,0.5]];portConstraint=eastwest;rotatable=0;whiteSpace=wrap;html=1;" vertex="1" parent="oomTNqvoLpPSbZY3bdZ6-30">
          <mxGeometry y="30" width="140" height="30" as="geometry" />
        </mxCell>
        <mxCell id="oomTNqvoLpPSbZY3bdZ6-32" value="priority: int" style="text;strokeColor=none;fillColor=none;align=left;verticalAlign=middle;spacingLeft=4;spacingRight=4;overflow=hidden;points=[[0,0.5],[1,0.5]];portConstraint=eastwest;rotatable=0;whiteSpace=wrap;html=1;" vertex="1" parent="oomTNqvoLpPSbZY3bdZ6-30">
          <mxGeometry y="60" width="140" height="30" as="geometry" />
        </mxCell>
        <mxCell id="oomTNqvoLpPSbZY3bdZ6-33" style="edgeStyle=orthogonalEdgeStyle;rounded=0;orthogonalLoop=1;jettySize=auto;html=1;entryX=1;entryY=0.5;entryDx=0;entryDy=0;dashed=1;endArrow=open;endFill=0;" edge="1" parent="1" source="oomTNqvoLpPSbZY3bdZ6-21" target="oomTNqvoLpPSbZY3bdZ6-29">
          <mxGeometry relative="1" as="geometry" />
        </mxCell>
        <mxCell id="oomTNqvoLpPSbZY3bdZ6-40" value="" style="edgeStyle=orthogonalEdgeStyle;rounded=0;orthogonalLoop=1;jettySize=auto;html=1;entryX=0;entryY=0.5;entryDx=0;entryDy=0;" edge="1" parent="1" source="oomTNqvoLpPSbZY3bdZ6-36" target="oomTNqvoLpPSbZY3bdZ6-41">
          <mxGeometry relative="1" as="geometry">
            <mxPoint x="510" y="850" as="targetPoint" />
          </mxGeometry>
        </mxCell>
        <mxCell id="oomTNqvoLpPSbZY3bdZ6-36" value="&lt;div&gt;&lt;br&gt;&lt;/div&gt;DamageArea.Source.dealDamageOnEnter&lt;div&gt;==true&lt;/div&gt;&lt;div&gt;(접촉 시 피해를 입힌다면)&lt;/div&gt;" style="rhombus;whiteSpace=wrap;html=1;fillColor=#f8cecc;strokeColor=#b85450;rounded=1;arcSize=0;" vertex="1" parent="1">
          <mxGeometry x="160" y="800" width="320" height="100" as="geometry" />
        </mxCell>
        <mxCell id="oomTNqvoLpPSbZY3bdZ6-41" value="피해 발생" style="shape=process;whiteSpace=wrap;html=1;backgroundOutline=1;fillColor=#d0cee2;strokeColor=#56517e;" vertex="1" parent="1">
          <mxGeometry x="510" y="820" width="120" height="60" as="geometry" />
        </mxCell>
        <mxCell id="oomTNqvoLpPSbZY3bdZ6-44" value="" style="edgeStyle=orthogonalEdgeStyle;rounded=0;orthogonalLoop=1;jettySize=auto;html=1;" edge="1" parent="1" source="oomTNqvoLpPSbZY3bdZ6-42" target="oomTNqvoLpPSbZY3bdZ6-43">
          <mxGeometry relative="1" as="geometry" />
        </mxCell>
        <mxCell id="oomTNqvoLpPSbZY3bdZ6-42" value="피해 발생 시" style="rounded=1;whiteSpace=wrap;html=1;fillColor=#fff2cc;strokeColor=#d6b656;" vertex="1" parent="1">
          <mxGeometry x="10" y="940" width="120" height="60" as="geometry" />
        </mxCell>
        <mxCell id="oomTNqvoLpPSbZY3bdZ6-46" value="" style="edgeStyle=orthogonalEdgeStyle;rounded=0;orthogonalLoop=1;jettySize=auto;html=1;fillColor=#f8cecc;strokeColor=#FF0000;" edge="1" parent="1" source="oomTNqvoLpPSbZY3bdZ6-43" target="oomTNqvoLpPSbZY3bdZ6-45">
          <mxGeometry relative="1" as="geometry" />
        </mxCell>
        <mxCell id="oomTNqvoLpPSbZY3bdZ6-51" value="" style="edgeStyle=orthogonalEdgeStyle;rounded=0;orthogonalLoop=1;jettySize=auto;html=1;" edge="1" parent="1" source="oomTNqvoLpPSbZY3bdZ6-43" target="oomTNqvoLpPSbZY3bdZ6-50">
          <mxGeometry relative="1" as="geometry" />
        </mxCell>
        <mxCell id="oomTNqvoLpPSbZY3bdZ6-43" value="Hitbox.unit이&lt;div&gt;&lt;span style=&quot;color: rgb(0, 0, 0); text-align: left;&quot;&gt;damagedUnitList에&lt;/span&gt;&lt;br&gt;&lt;/div&gt;&lt;div&gt;&lt;span style=&quot;color: rgb(0, 0, 0); text-align: left;&quot;&gt;있다면&lt;/span&gt;&lt;/div&gt;" style="whiteSpace=wrap;html=1;fillColor=#f8cecc;strokeColor=#b85450;rounded=1;arcSize=0;shape=rhombus;perimeter=rhombusPerimeter;" vertex="1" parent="1">
          <mxGeometry x="170" y="940" width="240" height="60" as="geometry" />
        </mxCell>
        <mxCell id="oomTNqvoLpPSbZY3bdZ6-45" value="취소" style="rounded=1;whiteSpace=wrap;html=1;fillColor=#fff2cc;strokeColor=#d6b656;" vertex="1" parent="1">
          <mxGeometry x="230" y="1030" width="120" height="60" as="geometry" />
        </mxCell>
        <mxCell id="oomTNqvoLpPSbZY3bdZ6-48" value="No" style="text;html=1;align=center;verticalAlign=middle;whiteSpace=wrap;rounded=0;" vertex="1" parent="1">
          <mxGeometry x="290" y="1000" width="60" height="30" as="geometry" />
        </mxCell>
        <mxCell id="oomTNqvoLpPSbZY3bdZ6-54" value="" style="edgeStyle=orthogonalEdgeStyle;rounded=0;orthogonalLoop=1;jettySize=auto;html=1;" edge="1" parent="1" source="oomTNqvoLpPSbZY3bdZ6-50" target="oomTNqvoLpPSbZY3bdZ6-53">
          <mxGeometry relative="1" as="geometry" />
        </mxCell>
        <mxCell id="oomTNqvoLpPSbZY3bdZ6-50" value="&lt;span style=&quot;color: rgb(0, 0, 0); text-align: left;&quot;&gt;damageAreaList&lt;/span&gt;&lt;div&gt;&lt;span style=&quot;color: rgb(0, 0, 0); text-align: left;&quot;&gt;(충돌 중인 DamageArea)에서&lt;/span&gt;&lt;/div&gt;&lt;div&gt;&lt;span style=&quot;color: rgb(0, 0, 0); text-align: left;&quot;&gt;유닛 별로 가장 우선도 합이 높은&lt;/span&gt;&lt;/div&gt;&lt;div&gt;&lt;span style=&quot;color: rgb(0, 0, 0); text-align: left;&quot;&gt;DamageArea-HitBox 조합을 탐색&lt;/span&gt;&lt;/div&gt;" style="rounded=0;whiteSpace=wrap;html=1;fillColor=#f5f5f5;fontColor=#333333;strokeColor=#666666;" vertex="1" parent="1">
          <mxGeometry x="460" y="940" width="200" height="60" as="geometry" />
        </mxCell>
        <mxCell id="oomTNqvoLpPSbZY3bdZ6-53" value="실제 피해 적용" style="rounded=1;whiteSpace=wrap;html=1;fillColor=#fff2cc;strokeColor=#d6b656;" vertex="1" parent="1">
          <mxGeometry x="500" y="1030" width="120" height="60" as="geometry" />
        </mxCell>
      </root>
    </mxGraphModel>
  </diagram>
</mxfile>
